<?xml version="1.0" standalone="no"?>
<!DOCTYPE svg PUBLIC "-//W3C//DTD SVG 20010904//EN"
 "http://www.w3.org/TR/2001/REC-SVG-20010904/DTD/svg10.dtd">
<svg version="1.0" xmlns="http://www.w3.org/2000/svg"
 width="512.000000pt" height="512.000000pt" viewBox="0 0 512.000000 512.000000"
 preserveAspectRatio="xMidYMid meet">
<metadata>
Created by potrace 1.14, written by Peter Selinger 2001-2017
</metadata>
<g transform="translate(0.000000,512.000000) scale(0.100000,-0.100000)"
fill="#000000" stroke="none">
<path d="M3430 4980 c-7 -140 -78 -308 -170 -400 -36 -36 -121 -100 -133 -100
-6 0 -18 -6 -26 -14 -15 -13 -124 -54 -166 -62 -96 -19 -126 -24 -168 -29
l-48 -6 8 63 c27 221 -23 360 -171 472 -27 20 -66 46 -87 56 l-38 20 39 -93
c37 -88 55 -164 52 -217 0 -14 -2 -43 -3 -65 -6 -129 -129 -306 -287 -411 -31
-22 -59 -41 -62 -44 -3 -3 -21 -15 -41 -27 -38 -22 -59 -16 -59 17 0 23 -46
145 -76 200 -37 68 -113 151 -180 195 -53 36 -183 89 -193 80 -2 -3 18 -28 45
-57 54 -57 114 -140 114 -157 0 -6 4 -11 9 -11 9 0 46 -87 58 -135 13 -51 11
-184 -4 -245 -22 -93 -139 -310 -156 -289 -2 2 -17 31 -32 63 -29 59 -91 145
-129 179 -12 10 -33 29 -49 43 -58 52 -204 115 -301 130 -36 5 -38 4 -23 -10
8 -9 18 -16 21 -16 4 0 21 -12 38 -27 162 -139 235 -240 279 -384 36 -118 27
-309 -21 -435 l-11 -27 -35 59 c-19 32 -56 81 -82 108 -45 47 -149 120 -203
143 -26 11 -26 11 21 -95 41 -92 103 -258 116 -310 27 -115 51 -251 59 -342 4
-41 15 -104 26 -140 11 -36 21 -85 21 -110 1 -46 -51 -290 -62 -290 -8 0 -90
126 -90 139 0 6 -4 11 -10 11 -11 0 -11 0 -15 -45 -2 -16 -6 -52 -9 -78 -5
-50 -18 -343 -18 -432 -1 -104 27 -179 93 -250 41 -44 137 -104 140 -88 1 5 2
20 3 35 2 38 10 42 50 28 19 -6 57 -11 84 -12 54 0 172 29 172 43 0 5 7 9 15
9 8 0 15 5 15 10 0 6 -7 10 -16 10 -74 0 -200 74 -237 139 l-18 31 53 -21 c49
-20 117 -26 226 -21 31 2 47 22 17 22 -34 0 -114 52 -158 101 -56 63 -62 88
-15 59 29 -17 110 -37 131 -32 4 1 24 5 45 8 20 3 39 8 41 10 3 2 -14 20 -37
39 -39 34 -84 111 -97 167 l-7 26 63 -19 c57 -18 124 -23 157 -11 8 3 -3 16
-27 34 -50 36 -113 156 -83 159 4 0 41 1 82 3 41 2 91 10 110 19 37 17 36 18
-35 37 -22 6 -49 17 -59 25 -19 14 -19 15 10 40 72 63 169 80 230 40 27 -18
27 -18 -33 -112 -41 -65 -117 -226 -128 -273 -1 -3 -7 -25 -15 -50 -17 -58
-17 -57 -27 -110 -10 -51 -9 -151 2 -255 26 -232 -2 -363 -106 -503 -22 -28
-36 -52 -30 -52 15 0 125 123 154 172 15 26 34 72 42 104 15 58 25 79 25 53 0
-18 85 -150 133 -207 42 -50 47 -48 14 6 -56 90 -119 264 -135 371 -9 63 -8
203 2 250 15 70 40 138 78 208 50 95 139 231 155 237 7 3 19 -28 34 -89 l23
-95 -23 -24 c-13 -14 -43 -33 -67 -43 -24 -10 -44 -21 -44 -25 0 -11 79 -10
118 1 41 12 41 -1 -1 -33 -33 -25 -97 -45 -131 -40 -17 2 -17 2 1 -18 27 -30
72 -50 117 -53 57 -4 56 -4 56 -13 0 -9 -63 -41 -95 -49 -11 -2 -40 -7 -65
-12 l-45 -7 52 -18 c36 -12 68 -16 103 -12 27 3 50 4 50 1 0 -3 -31 -20 -68
-39 -67 -34 -114 -49 -182 -61 -44 -8 -48 -12 -24 -30 61 -46 118 -57 217 -41
46 7 47 7 47 -19 0 -30 15 -38 75 -39 54 0 103 31 174 113 46 53 50 61 31 61
-12 0 -35 8 -50 17 -33 19 -45 72 -36 163 7 68 7 65 51 230 19 74 38 143 40
154 2 10 12 44 21 75 45 154 43 197 -8 256 -51 60 -80 192 -64 294 19 116 67
202 155 275 87 73 171 103 276 100 267 -7 407 -171 408 -479 1 -191 -39 -348
-140 -551 -79 -159 -192 -305 -306 -396 -43 -33 -48 -41 -27 -40 62 2 180 31
225 55 11 6 26 12 33 13 8 1 22 10 31 18 10 9 21 16 24 16 13 0 110 71 174
126 33 30 64 54 67 54 8 0 -7 -189 -20 -254 -2 -12 -7 -34 -10 -51 -3 -16 -10
-50 -15 -75 -6 -25 -12 -52 -14 -60 -15 -74 -115 -298 -174 -390 -80 -126
-224 -276 -350 -364 -73 -52 -238 -143 -287 -159 -10 -3 -37 -13 -59 -22 -38
-15 -208 -62 -250 -70 -20 -3 -74 -11 -156 -21 -147 -20 -369 -4 -519 37 -131
36 -438 172 -448 200 -2 5 -9 9 -14 9 -12 0 -163 107 -212 150 -159 137 -320
328 -415 490 -55 94 -96 176 -141 283 -28 67 -56 131 -60 142 -23 52 -94 303
-106 370 -1 11 -6 31 -9 45 -8 33 -33 167 -39 205 -2 17 -5 30 -6 30 0 0 -3
18 -5 40 -3 36 -12 116 -20 185 -2 14 -3 37 -4 53 -1 15 -5 27 -9 27 -14 0
-90 -237 -107 -335 -4 -22 -9 -50 -11 -61 -16 -88 -21 -172 -18 -324 2 -96 6
-186 8 -200 4 -34 19 -107 35 -185 11 -48 58 -212 70 -240 5 -11 23 -56 42
-100 37 -90 94 -201 149 -290 20 -33 43 -71 51 -85 8 -14 16 -27 20 -30 3 -3
21 -27 40 -55 18 -27 41 -58 50 -70 140 -174 317 -352 459 -460 36 -28 67 -52
70 -55 17 -18 169 -111 245 -150 132 -67 333 -127 480 -145 28 -3 57 -8 65
-10 76 -22 504 -23 685 -1 40 5 130 18 150 22 11 3 35 7 54 10 52 9 61 11 131
29 36 9 73 19 83 20 45 9 202 61 292 97 92 37 284 126 295 138 3 3 25 16 50
29 25 13 52 30 61 37 8 8 19 14 22 14 7 0 177 118 187 129 3 3 34 30 70 60
110 92 228 216 355 372 45 57 205 311 205 328 0 3 11 23 25 44 14 20 23 37 20
37 -3 0 1 10 9 23 40 63 170 418 201 547 0 3 9 40 19 82 16 74 18 77 38 67 28
-15 160 -150 153 -157 -3 -3 1 -12 9 -21 8 -9 24 -38 35 -66 11 -27 20 -45 21
-40 1 6 3 17 6 25 10 35 34 148 40 185 7 49 7 240 -1 275 -3 14 -9 50 -14 81
-25 151 -114 353 -246 555 -41 63 -71 114 -67 115 4 0 14 2 22 4 75 19 127 27
185 29 39 2 168 -19 186 -30 10 -6 49 -14 49 -10 0 20 -40 127 -68 180 -38 72
-160 206 -187 206 -8 0 -15 4 -15 9 0 4 -31 22 -69 40 -82 37 -178 66 -289 85
-7 1 -12 6 -12 12 0 8 54 75 86 108 15 15 74 111 106 171 24 45 88 218 88 238
0 5 -12 0 -27 -11 -28 -20 -153 -83 -153 -77 0 2 -19 -2 -42 -9 -58 -17 -173
-12 -239 9 -66 22 -139 54 -139 61 0 3 11 33 25 67 13 34 26 73 29 87 2 14 9
44 14 68 8 36 9 107 2 264 -2 36 -17 24 -59 -47 -55 -92 -183 -225 -218 -225
-7 0 -13 -3 -13 -8 0 -17 -120 -58 -196 -67 -75 -9 -106 -8 -249 8 -31 3 -35
18 -14 58 67 133 91 249 73 357 -13 77 -56 177 -98 227 l-25 30 -1 -25z
m-1739 -1950 c31 -134 1 -252 -86 -343 -30 -32 -40 -29 -60 18 -23 58 -13 103
63 275 9 19 17 38 18 43 1 4 2 8 4 10 3 4 10 42 14 77 2 19 5 37 6 40 3 8 30
-72 41 -120z"/>
</g>
</svg>
